<svg xmlns="http://www.w3.org/2000/svg" width="1500" height="820" viewBox="0 0 1500 820" role="img" aria-labelledby="title desc">
  <title id="title">Official SmolVLA residual MoE architecture</title>
  <desc id="desc">A CVPR-style block diagram showing the official HuggingFaceVLA/smolvla_libero policy with frozen dense SmolVLA blocks and trainable residual top-2 MoE adapters inside the official action expert MLPs.</desc>
  <defs>
    <marker id="arrow" viewBox="0 0 10 10" refX="9" refY="5" markerWidth="8" markerHeight="8" orient="auto-start-reverse">
      <path d="M 0 0 L 10 5 L 0 10 z" fill="#2f3a4a"/>
    </marker>
    <marker id="arrowBlue" viewBox="0 0 10 10" refX="9" refY="5" markerWidth="8" markerHeight="8" orient="auto-start-reverse">
      <path d="M 0 0 L 10 5 L 0 10 z" fill="#2f5f9f"/>
    </marker>
    <marker id="arrowOrange" viewBox="0 0 10 10" refX="9" refY="5" markerWidth="8" markerHeight="8" orient="auto-start-reverse">
      <path d="M 0 0 L 10 5 L 0 10 z" fill="#9a5b16"/>
    </marker>
    <marker id="arrowPurple" viewBox="0 0 10 10" refX="9" refY="5" markerWidth="8" markerHeight="8" orient="auto-start-reverse">
      <path d="M 0 0 L 10 5 L 0 10 z" fill="#7c4fb3"/>
    </marker>
    <filter id="shadow" x="-10%" y="-10%" width="120%" height="130%">
      <feDropShadow dx="0" dy="4" stdDeviation="4" flood-color="#203040" flood-opacity="0.12"/>
    </filter>
    <style>
      .bg { fill: #ffffff; }
      .panel { fill: #f8fafc; stroke: #cbd5e1; stroke-width: 1.4; rx: 12; }
      .box { stroke-width: 1.8; rx: 10; filter: url(#shadow); }
      .input { fill: #eef6ff; stroke: #7aa7d9; }
      .official { fill: #eff7ef; stroke: #78a879; }
      .flow { fill: #fff7e8; stroke: #d39b42; }
      .frozen { fill: #f2f6fb; stroke: #8aa1bd; }
      .moe { fill: #f7efff; stroke: #9b7ad6; }
      .output { fill: #eefbf6; stroke: #58a983; }
      .small { font: 500 17px Arial, Helvetica, sans-serif; fill: #334155; }
      .label { font: 600 19px Arial, Helvetica, sans-serif; fill: #1f2937; }
      .title { font: 700 28px Arial, Helvetica, sans-serif; fill: #111827; }
      .caption { font: 500 15px Arial, Helvetica, sans-serif; fill: #64748b; }
      .tiny { font: 500 13px Arial, Helvetica, sans-serif; fill: #64748b; }
      .math { font: 600 16px Arial, Helvetica, sans-serif; fill: #374151; }
      .tag { font: 700 12px Arial, Helvetica, sans-serif; fill: #475569; }
      .arrow { stroke: #2f3a4a; stroke-width: 2.2; fill: none; marker-end: url(#arrow); }
      .arrowBlue { stroke: #2f5f9f; stroke-width: 2.2; fill: none; marker-end: url(#arrowBlue); }
      .arrowOrange { stroke: #9a5b16; stroke-width: 2.2; fill: none; marker-end: url(#arrowOrange); }
      .arrowPurple { stroke: #7c4fb3; stroke-width: 2.2; fill: none; marker-end: url(#arrowPurple); }
      .dash { stroke-dasharray: 7 6; }
      .thin { stroke-width: 1.5; }
      .freezeText { fill: #42617f; }
      .trainText { fill: #7c4fb3; }
    </style>
  </defs>

  <rect class="bg" width="1500" height="820"/>
  <text x="750" y="44" text-anchor="middle" class="title">SmolVLA-MoE: Official SmolVLA + Residual Top-2 MoE Adapters</text>
  <text x="750" y="72" text-anchor="middle" class="caption">This branch preserves HuggingFaceVLA/smolvla_libero and trains sparse residual adapters inside the official action expert MLPs</text>

  <rect x="40" y="108" width="286" height="560" class="panel"/>
  <text x="183" y="140" text-anchor="middle" class="label">LIBERO Inputs</text>

  <rect x="76" y="174" width="214" height="84" class="box input"/>
  <text x="183" y="207" text-anchor="middle" class="label">RGB Views</text>
  <text x="183" y="234" text-anchor="middle" class="small">image + wrist_image</text>

  <rect x="76" y="300" width="214" height="84" class="box input"/>
  <text x="183" y="333" text-anchor="middle" class="label">Language</text>
  <text x="183" y="360" text-anchor="middle" class="small">task instruction</text>

  <rect x="76" y="426" width="214" height="84" class="box input"/>
  <text x="183" y="459" text-anchor="middle" class="label">Robot State</text>
  <text x="183" y="486" text-anchor="middle" class="small">8-d proprioception</text>

  <rect x="76" y="552" width="214" height="68" class="box input"/>
  <text x="183" y="579" text-anchor="middle" class="label">Action Chunk</text>
  <text x="183" y="604" text-anchor="middle" class="small">train target: H=50, A=7</text>

  <rect x="370" y="108" width="320" height="560" class="panel"/>
  <text x="530" y="140" text-anchor="middle" class="label">Official Checkpoint Path</text>

  <rect x="410" y="178" width="240" height="94" class="box official"/>
  <text x="530" y="214" text-anchor="middle" class="label">Official Pre/Post</text>
  <text x="530" y="241" text-anchor="middle" class="small">tokenizer + processor stats</text>
  <text x="530" y="263" text-anchor="middle" class="tiny">state/action mean-std from checkpoint</text>

  <rect x="410" y="322" width="240" height="124" class="box frozen"/>
  <text x="530" y="360" text-anchor="middle" class="label">SmolVLA VLM</text>
  <text x="530" y="388" text-anchor="middle" class="small">SmolVLM2-500M-Instruct</text>
  <text x="530" y="416" text-anchor="middle" class="tiny freezeText">official dense weights frozen</text>

  <rect x="410" y="500" width="240" height="94" class="box flow"/>
  <text x="530" y="535" text-anchor="middle" class="label">Flow Matching</text>
  <text x="530" y="563" text-anchor="middle" class="math">x_t = (1 - t) z + t a</text>
  <text x="530" y="586" text-anchor="middle" class="tiny">official objective unchanged</text>

  <rect x="744" y="112" width="402" height="556" class="panel"/>
  <text x="945" y="144" text-anchor="middle" class="label">Official Action Expert</text>
  <text x="945" y="169" text-anchor="middle" class="caption">patch target: model.vlm_with_expert.lm_expert.layers[*].mlp</text>

  <rect x="784" y="210" width="322" height="92" class="box flow"/>
  <text x="945" y="245" text-anchor="middle" class="label">Action Expert Transformer</text>
  <text x="945" y="273" text-anchor="middle" class="small">32 official layers, KV-cache kept</text>

  <rect x="785" y="352" width="320" height="186" class="box frozen"/>
  <text x="945" y="383" text-anchor="middle" class="label">Each Official MLP Block</text>
  <text x="945" y="409" text-anchor="middle" class="tiny freezeText">dense path preserved</text>

  <rect x="820" y="438" width="164" height="58" class="box frozen"/>
  <text x="902" y="463" text-anchor="middle" class="small">Dense MLP(x)</text>
  <text x="902" y="484" text-anchor="middle" class="tiny freezeText">frozen official</text>

  <rect x="1006" y="438" width="66" height="58" class="box moe"/>
  <text x="1039" y="464" text-anchor="middle" class="small">+</text>
  <text x="1039" y="486" text-anchor="middle" class="tiny">residual</text>

  <rect x="814" y="582" width="262" height="58" class="box output"/>
  <text x="945" y="606" text-anchor="middle" class="math">y = dense(x) + alpha * MoE(x)</text>
  <text x="945" y="628" text-anchor="middle" class="tiny">zero-init output protects official behavior</text>

  <rect x="1200" y="130" width="260" height="510" class="panel"/>
  <text x="1330" y="162" text-anchor="middle" class="label">Trainable Residual MoE</text>

  <rect x="1234" y="212" width="192" height="64" class="box moe"/>
  <text x="1330" y="240" text-anchor="middle" class="label">Router</text>
  <text x="1330" y="263" text-anchor="middle" class="tiny trainText">top-2 chunk-level routing</text>

  <rect x="1234" y="324" width="192" height="64" class="box moe"/>
  <text x="1330" y="352" text-anchor="middle" class="label">4 Low-Rank Experts</text>
  <text x="1330" y="375" text-anchor="middle" class="tiny trainText">adapter_dim=256</text>

  <rect x="1224" y="430" width="46" height="44" class="box moe"/>
  <text x="1247" y="457" text-anchor="middle" class="tiny">E1</text>
  <rect x="1283" y="430" width="46" height="44" class="box moe"/>
  <text x="1306" y="457" text-anchor="middle" class="tiny">E2</text>
  <rect x="1342" y="430" width="46" height="44" class="box moe"/>
  <text x="1365" y="457" text-anchor="middle" class="tiny">E3</text>
  <rect x="1401" y="430" width="46" height="44" class="box moe"/>
  <text x="1424" y="457" text-anchor="middle" class="tiny">E4</text>

  <rect x="1234" y="526" width="192" height="64" class="box moe"/>
  <text x="1330" y="554" text-anchor="middle" class="label">Residual Scale</text>
  <text x="1330" y="577" text-anchor="middle" class="tiny trainText">trainable alpha, init 1</text>

  <rect x="1070" y="704" width="294" height="72" class="box output"/>
  <text x="1217" y="733" text-anchor="middle" class="label">Continuous Action Chunk</text>
  <text x="1217" y="760" text-anchor="middle" class="math">50 x 7, execute n_action_steps=1</text>

  <rect x="68" y="704" width="864" height="72" class="panel"/>
  <text x="500" y="731" text-anchor="middle" class="caption">Training updates only MoE routers, low-rank experts, and residual scales by default</text>
  <text x="500" y="756" text-anchor="middle" class="tiny">total params 652M; trainable params 47.2M; official dense SmolVLA loaded from HuggingFaceVLA/smolvla_libero</text>

  <path d="M 290 216 C 338 216, 354 216, 410 224" class="arrow"/>
  <path d="M 290 342 C 338 342, 356 310, 410 252" class="arrow"/>
  <path d="M 290 468 C 346 468, 360 440, 410 386" class="arrowBlue"/>
  <path d="M 290 586 C 348 586, 374 560, 410 548" class="arrowOrange"/>

  <path d="M 530 272 L 530 322" class="arrowBlue"/>
  <path d="M 650 384 C 700 384, 718 256, 784 256" class="arrowBlue"/>
  <path d="M 650 548 C 704 548, 724 300, 784 282" class="arrowOrange"/>

  <path d="M 945 302 L 945 352" class="arrowOrange"/>
  <path d="M 945 410 L 902 438" class="arrow"/>
  <path d="M 945 410 C 1060 396, 1150 260, 1234 244" class="arrowPurple"/>
  <path d="M 1330 276 L 1330 324" class="arrowPurple"/>
  <path d="M 1330 388 C 1330 414, 1247 408, 1247 430" class="arrowPurple thin"/>
  <path d="M 1330 388 C 1330 414, 1306 408, 1306 430" class="arrowPurple thin"/>
  <path d="M 1330 388 C 1330 414, 1365 408, 1365 430" class="arrowPurple thin"/>
  <path d="M 1330 388 C 1330 414, 1424 408, 1424 430" class="arrowPurple thin"/>
  <path d="M 1330 474 L 1330 526" class="arrowPurple"/>
  <path d="M 1234 558 C 1152 556, 1110 488, 1072 467" class="arrowPurple"/>
  <path d="M 984 467 L 1006 467" class="arrow"/>
  <path d="M 1039 496 C 1024 532, 987 548, 945 582" class="arrow"/>
  <path d="M 945 640 C 956 694, 1016 729, 1070 740" class="arrowOrange"/>

  <text x="350" y="201" text-anchor="middle" class="tiny">images</text>
  <text x="350" y="329" text-anchor="middle" class="tiny">tokens</text>
  <text x="354" y="452" text-anchor="middle" class="tiny">state</text>
  <text x="360" y="578" text-anchor="middle" class="tiny">a, z, t</text>
  <text x="707" y="236" text-anchor="middle" class="tiny">VLM context</text>
  <text x="704" y="518" text-anchor="middle" class="tiny">flow state</text>
  <text x="1160" y="230" text-anchor="middle" class="tiny trainText">trainable</text>
  <text x="712" y="384" text-anchor="middle" class="tag freezeText">FROZEN</text>
  <text x="1168" y="604" text-anchor="middle" class="tag trainText">TRAINABLE</text>
</svg>
